<svg xmlns="http://www.w3.org/2000/svg" width="1200" height="720" viewBox="0 0 1200 720" role="img" aria-labelledby="title desc">
  <title id="title">入口は一度。修正はいつもの言葉で。</title>
  <desc id="desc">フェーズの最初にSuperforgeを一度使い、必要最小限の経路を選んだ後は、通常の文章で追加指示を続ける流れです。</desc>
  <defs><marker id="arrow" viewBox="0 0 10 10" refX="8" refY="5" markerWidth="7" markerHeight="7" orient="auto-start-reverse"><path d="M 0 0 L 10 5 L 0 10 z" fill="#6ee7b7"/></marker></defs>

  <style>
    .bg { fill:#0b1020; }
    .panel { fill:#141b31; stroke:#334166; stroke-width:1.5; }
    .soft { fill:#10172a; stroke:#293657; stroke-width:1.2; }
    .accent { fill:#6ee7b7; }
    .blue { fill:#7dd3fc; }
    .violet { fill:#c4b5fd; }
    .amber { fill:#fcd34d; }
    .white { fill:#f8fafc; }
    .muted { fill:#a8b2cc; }
    .label { font:700 17px Inter,ui-sans-serif,system-ui,sans-serif; letter-spacing:.2px; }
    .body { font:500 15px Inter,ui-sans-serif,system-ui,sans-serif; }
    .small { font:500 13px Inter,ui-sans-serif,system-ui,sans-serif; }
    .title { font:800 34px Inter,ui-sans-serif,system-ui,sans-serif; letter-spacing:-.5px; }
    .arrow { stroke:#6ee7b7; stroke-width:2.5; fill:none; marker-end:url(#arrow); }
  </style>
  <rect class="bg" width="1200" height="720" rx="28"/>
  <text x="70" y="70" class="title white" text-anchor="start">入口は一度。修正はいつもの言葉で。</text>
  <rect class="panel" x="70" y="112" width="300" height="94" rx="18"/>
  <text x="92" y="148" class="label white" text-anchor="start">欲しい結果を伝える</text>
  <text x="92" y="178" class="small muted" text-anchor="start">専門スキル名を覚える必要はない</text>
  <path class="arrow" d="M380 159 H470"/>
  <rect x="480" y="112" width="650" height="94" rx="18" fill="#16342f" stroke="#3fa98a" stroke-width="1.5"/>
  <text x="505" y="148" class="label accent" text-anchor="start">Thin Router</text>
  <text x="505" y="178" class="body white" text-anchor="start">規模を判断 · 中心となる経路を一つ選ぶ</text>
  <rect x="70" y="258" width="330" height="138" rx="18" fill="#1b3349" stroke="#4896c7" stroke-width="1.5"/>
  <text x="92" y="294" class="label blue" text-anchor="start">Small</text>
  <text x="92" y="328" class="body white" text-anchor="start">一つの問題 · 1〜3ファイル</text>
  <text x="92" y="366" class="small muted" text-anchor="start">その場で対応</text>
  <path class="arrow" d="M805 216 C805 235 235 232 235 248"/>
  <rect x="430" y="258" width="330" height="138" rx="18" fill="#2d2850" stroke="#7c6ed0" stroke-width="1.5"/>
  <text x="452" y="294" class="label violet" text-anchor="start">Medium</text>
  <text x="452" y="328" class="body white" text-anchor="start">連携が必要な一まとまりの変更</text>
  <text x="452" y="366" class="small muted" text-anchor="start">中心スキルを一つ</text>
  <path class="arrow" d="M805 216 C805 235 595 232 595 248"/>
  <rect x="790" y="258" width="330" height="138" rx="18" fill="#493719" stroke="#b78a32" stroke-width="1.5"/>
  <text x="812" y="294" class="label amber" text-anchor="start">Large</text>
  <text x="812" y="328" class="body white" text-anchor="start">新機能 · 監査 · リリース</text>
  <text x="812" y="366" class="small muted" text-anchor="start">必要なものだけを順番に</text>
  <path class="arrow" d="M805 216 C805 235 955 232 955 248"/>
  <rect class="panel" x="70" y="438" width="1060" height="66" rx="16"/>
  <text x="600" y="480" class="label white" text-anchor="middle">考える  →  作る  →  確かめる  →  出す</text>
  <path class="arrow" d="M600 508 V538"/>
  <rect class="soft" x="70" y="548" width="730" height="104" rx="18"/>
  <text x="94" y="584" class="label accent" text-anchor="start">同じフェーズを続ける</text>
  <text x="94" y="616" class="body white" text-anchor="start">普段の文章で修正を続ける。ルーターを毎回呼び直さない</text>
  <text x="830" y="578" class="small muted" text-anchor="start">任意のショートカット</text>
  <rect class="panel" x="830" y="594" width="88" height="42" rx="12"/>
  <text x="874" y="621" class="small white" text-anchor="middle">quick</text>
  <rect class="panel" x="930" y="594" width="88" height="42" rx="12"/>
  <text x="974" y="621" class="small white" text-anchor="middle">build</text>
  <rect class="panel" x="1030" y="594" width="88" height="42" rx="12"/>
  <text x="1074" y="621" class="small white" text-anchor="middle">ship</text>
</svg>
